<svg xmlns="http://www.w3.org/2000/svg" width="1200" height="630" viewBox="0 0 1200 630">
  <defs>
    <linearGradient id="background" x1="80" y1="40" x2="1120" y2="590" gradientUnits="userSpaceOnUse">
      <stop stop-color="#17355F"/>
      <stop offset="0.55" stop-color="#285F9E"/>
      <stop offset="1" stop-color="#4A8BD9"/>
    </linearGradient>
    <radialGradient id="glow" cx="0" cy="0" r="1" gradientTransform="translate(1030 90) rotate(135) scale(550)">
      <stop stop-color="#8FC2FF" stop-opacity="0.5"/>
      <stop offset="1" stop-color="#8FC2FF" stop-opacity="0"/>
    </radialGradient>
  </defs>
  <rect width="1200" height="630" fill="url(#background)"/>
  <rect width="1200" height="630" fill="url(#glow)"/>
  <circle cx="1090" cy="500" r="270" fill="#FFFFFF" fill-opacity="0.06"/>
  <circle cx="1090" cy="500" r="190" fill="#FFFFFF" fill-opacity="0.06"/>
  <path d="M0 532C188 470 330 612 548 548C761 486 890 434 1200 510V630H0V532Z" fill="#FFFFFF" fill-opacity="0.09"/>
  <rect x="76" y="218" width="625" height="12" rx="6" fill="#8FC2FF"/>
  <rect x="76" y="264" width="820" height="54" rx="14" fill="#FFFFFF" fill-opacity="0.95"/>
  <rect x="76" y="342" width="710" height="54" rx="14" fill="#FFFFFF" fill-opacity="0.95"/>
  <rect x="76" y="438" width="550" height="18" rx="9" fill="#DCEBFF" fill-opacity="0.82"/>
  <rect x="76" y="472" width="440" height="18" rx="9" fill="#DCEBFF" fill-opacity="0.65"/>
  <image href="Freetown-Logo-Ico-Text-white.webp" x="76" y="65" width="440" height="78" preserveAspectRatio="xMinYMid meet"/>
</svg>
